<svg xmlns="http://www.w3.org/2000/svg" style="background: transparent; background-color: transparent; color-scheme: light dark;" xmlns:xlink="http://www.w3.org/1999/xlink" version="1.1" width="261px" height="191px" viewBox="0 0 261 191"><defs/><g><g data-cell-id="0"><g data-cell-id="1"><g data-cell-id="2"><g transform="translate(0.5,0.5)"><path d="M 0 15 C 0 6.72 13.43 0 30 0 C 37.96 0 45.59 1.58 51.21 4.39 C 56.84 7.21 60 11.02 60 15 L 60 65 C 60 73.28 46.57 80 30 80 C 13.43 80 0 73.28 0 65 Z" fill="#ffffff" stroke="#000000" stroke-miterlimit="10" pointer-events="all" style="fill: light-dark(#ffffff, var(--ge-dark-color, #121212)); stroke: light-dark(rgb(0, 0, 0), rgb(255, 255, 255));"/><path d="M 60 15 C 60 23.28 46.57 30 30 30 C 13.43 30 0 23.28 0 15" fill="none" stroke="#000000" stroke-miterlimit="10" pointer-events="all" style="stroke: light-dark(rgb(0, 0, 0), rgb(255, 255, 255));"/></g></g><g data-cell-id="3"><g transform="translate(0.5,0.5)"><path d="M 140 110 Q 170 146 200 110 Q 230 74 260 110 L 260 170 Q 230 134 200 170 Q 170 206 140 170 L 140 110 Z" fill="#ffffff" stroke="#000000" stroke-miterlimit="10" pointer-events="all" style="fill: light-dark(#ffffff, var(--ge-dark-color, #121212)); stroke: light-dark(rgb(0, 0, 0), rgb(255, 255, 255));"/></g></g><g data-cell-id="4"><g transform="translate(0.5,0.5)"><ellipse cx="185" cy="17.5" rx="7.5" ry="7.5" fill="#ffffff" stroke="#000000" pointer-events="all" style="fill: light-dark(#ffffff, var(--ge-dark-color, #121212)); stroke: light-dark(rgb(0, 0, 0), rgb(255, 255, 255));"/><path d="M 185 25 L 185 50 M 185 30 L 170 30 M 185 30 L 200 30 M 185 50 L 170 70 M 185 50 L 200 70" fill="none" stroke="#000000" stroke-miterlimit="10" pointer-events="all" style="stroke: light-dark(rgb(0, 0, 0), rgb(255, 255, 255));"/></g><g><g><switch><foreignObject style="overflow: visible; text-align: left;" pointer-events="none" width="100%" height="100%" requiredFeatures="http://www.w3.org/TR/SVG11/feature#Extensibility"><div xmlns="http://www.w3.org/1999/xhtml" style="display: flex; align-items: unsafe flex-start; justify-content: unsafe center; width: 1px; height: 1px; padding-top: 77px; margin-left: 185px;"><div style="box-sizing: border-box; font-size: 0; text-align: center; color: #000000; "><div style="display: inline-block; font-size: 12px; font-family: Helvetica; color: light-dark(#000000, #ffffff); line-height: 1.2; pointer-events: all; white-space: nowrap; ">Actor</div></div></div></foreignObject><text x="185" y="89" fill="light-dark(#000000, #ffffff)" font-family="Helvetica" font-size="12px" text-anchor="middle">Actor</text></switch></g></g></g></g></g></g><switch><g requiredFeatures="http://www.w3.org/TR/SVG11/feature#Extensibility"/><a transform="translate(0,-5)" xlink:href="https://www.drawio.com/doc/faq/svg-export-text-problems" target="_blank"><text text-anchor="middle" font-size="10px" x="50%" y="100%">Text is not SVG - cannot display</text></a></switch></svg>